ffmpeg started on 2025-06-23 at 20:33:00
Report written to "D:\Convert\FFMetrics\reports\ssim_report-6.txt"
Log level: 32
Command line:
ffmpeg -hide_banner -nostdin -i "G:\\\xc0\xed\xe8\xec\xe5\\[\xd2\xee\xef-4]\\\xcc\xee\xe6\xe5\xf2, \xff \xe2\xf1\xf2\xf0\xe5\xf7\xf3 \xf2\xe5\xe1\xff \xe2 \xef\xee\xe4\xe7\xe5\xec\xe5\xeb\xfc\xe5\\\xd2\xc2-1\\DanMachi_[11]_[AniLibria_TV]_[HDTVRip_720p]_HEVC.mkv" -i "G:\\\xc0\xed\xe8\xec\xe5\\[\xd2\xee\xef-4]\\\xcc\xee\xe6\xe5\xf2, \xff \xe2\xf1\xf2\xf0\xe5\xf7\xf3 \xf2\xe5\xe1\xff \xe2 \xef\xee\xe4\xe7\xe5\xec\xe5\xeb\xfc\xe5\\\xd2\xc2-1\\DanMachi_[11]_[AniLibria_TV]_[HDTVRip_720p].mkv" -lavfi "[0:v]settb=AVTB,setpts=PTS-STARTPTS,format=pix_fmts=yuv420p10,fps=24000/1001,scale=1280:720:flags=bicubic[main];[1:v]settb=AVTB,setpts=PTS-STARTPTS,format=pix_fmts=yuv420p,fps=24000/1001,scale=1280:720:flags=bicubic[ref];[main][ref]ssim=eof_action=endall:stats_file='D\\:/Convert/FFMetrics/logs/ssim_logfile-6.txt'" -f null -
Input #0, matroska,webm, from 'G:\Аниме\[Топ-4]\Может, я встречу тебя в подземелье\ТВ-1\DanMachi_[11]_[AniLibria_TV]_[HDTVRip_720p]_HEVC.mkv':
  Metadata:
    ENCODER         : Lavf61.7.100
  Duration: 00:23:40.59, start: -0.021000, bitrate: 725 kb/s
  Stream #0:0(jpn): Video: hevc (Main 10), yuv420p10le(tv, bt709, progressive), 1280x720 [SAR 1:1 DAR 16:9], 23.98 fps, 23.98 tbr, 1k tbn (default)
      Metadata:
        title           : [HorribleSubs]
        ENCODER         : Lavc61.19.100 libx265
        BPS             : 527711
        DURATION        : 00:23:40.545708375
        NUMBER_OF_FRAMES: 34059
        NUMBER_OF_BYTES : 93704821
        _STATISTICS_WRITING_APP: mkvpropedit v66.0.0 ('Josie') 64-bit
        _STATISTICS_WRITING_DATE_UTC: 2025-06-23 09:11:22
        _STATISTICS_TAGS: BPS DURATION NUMBER_OF_FRAMES NUMBER_OF_BYTES
  Stream #0:1(rus): Audio: aac (LC), 48000 Hz, stereo, fltp (default)
      Metadata:
        title           : Metacarmex & Say
        ENCODER         : Lavc61.19.100 aac
        BPS             : 193348
        DURATION        : 00:23:40.565000000
        NUMBER_OF_FRAMES: 66590
        NUMBER_OF_BYTES : 34332997
        _STATISTICS_WRITING_APP: mkvpropedit v66.0.0 ('Josie') 64-bit
        _STATISTICS_WRITING_DATE_UTC: 2025-06-23 09:11:22
        _STATISTICS_TAGS: BPS DURATION NUMBER_OF_FRAMES NUMBER_OF_BYTES
  Stream #0:2(rus): Subtitle: ass (ssa) (default)
      Metadata:
        title           : Надписи [Vaisiliok]
        BPS             : 2
        DURATION        : 00:22:48.790000000
        NUMBER_OF_FRAMES: 4
        NUMBER_OF_BYTES : 406
        _STATISTICS_WRITING_APP: mkvpropedit v66.0.0 ('Josie') 64-bit
        _STATISTICS_WRITING_DATE_UTC: 2025-06-23 09:11:22
        _STATISTICS_TAGS: BPS DURATION NUMBER_OF_FRAMES NUMBER_OF_BYTES
  Stream #0:3(rus): Subtitle: ass (ssa)
      Metadata:
        title           : Полные [Vaisiliok]
        BPS             : 102
        DURATION        : 00:23:35.760000000
        NUMBER_OF_FRAMES: 284
        NUMBER_OF_BYTES : 18111
        _STATISTICS_WRITING_APP: mkvpropedit v66.0.0 ('Josie') 64-bit
        _STATISTICS_WRITING_DATE_UTC: 2025-06-23 09:11:22
        _STATISTICS_TAGS: BPS DURATION NUMBER_OF_FRAMES NUMBER_OF_BYTES
Input #1, matroska,webm, from 'G:\Аниме\[Топ-4]\Может, я встречу тебя в подземелье\ТВ-1\DanMachi_[11]_[AniLibria_TV]_[HDTVRip_720p].mkv':
  Metadata:
    encoder         : libebml v1.4.2 + libmatroska v1.6.4
    creation_time   : 2025-01-14T16:50:05.000000Z
  Duration: 00:23:40.57, start: 0.000000, bitrate: 1967 kb/s
  Stream #1:0(jpn): Video: h264 (High), yuv420p(progressive), 1280x720, SAR 1:1 DAR 16:9, 23.98 fps, 23.98 tbr, 1k tbn (default)
      Metadata:
        title           : [HorribleSubs]
        BPS             : 1770423
        DURATION        : 00:23:40.546000000
        NUMBER_OF_FRAMES: 34059
        NUMBER_OF_BYTES : 314370971
        _STATISTICS_WRITING_APP: mkvmerge v66.0.0 ('Josie') 64-bit
        _STATISTICS_WRITING_DATE_UTC: 2025-01-14 16:50:05
        _STATISTICS_TAGS: BPS DURATION NUMBER_OF_FRAMES NUMBER_OF_BYTES
  Stream #1:1(rus): Audio: aac (LC), 48000 Hz, stereo, fltp (default)
      Metadata:
        title           : Metacarmex & Say
        BPS             : 192091
        DURATION        : 00:23:40.565000000
        NUMBER_OF_FRAMES: 66589
        NUMBER_OF_BYTES : 34109860
        _STATISTICS_WRITING_APP: mkvmerge v66.0.0 ('Josie') 64-bit
        _STATISTICS_WRITING_DATE_UTC: 2025-01-14 16:50:05
        _STATISTICS_TAGS: BPS DURATION NUMBER_OF_FRAMES NUMBER_OF_BYTES
  Stream #1:2(rus): Subtitle: ass (ssa) (default)
      Metadata:
        title           : Надписи [Vaisiliok]
        BPS             : 2
        DURATION        : 00:22:48.790000000
        NUMBER_OF_FRAMES: 4
        NUMBER_OF_BYTES : 406
        _STATISTICS_WRITING_APP: mkvmerge v66.0.0 ('Josie') 64-bit
        _STATISTICS_WRITING_DATE_UTC: 2025-01-14 16:50:05
        _STATISTICS_TAGS: BPS DURATION NUMBER_OF_FRAMES NUMBER_OF_BYTES
  Stream #1:3(rus): Subtitle: ass (ssa)
      Metadata:
        title           : Полные [Vaisiliok]
        BPS             : 102
        DURATION        : 00:23:35.760000000
        NUMBER_OF_FRAMES: 284
        NUMBER_OF_BYTES : 18111
        _STATISTICS_WRITING_APP: mkvmerge v66.0.0 ('Josie') 64-bit
        _STATISTICS_WRITING_DATE_UTC: 2025-01-14 16:50:05
        _STATISTICS_TAGS: BPS DURATION NUMBER_OF_FRAMES NUMBER_OF_BYTES
  Stream #1:4: Attachment: ttf
      Metadata:
        filename        : ChinaCyr.ttf
        mimetype        : application/x-truetype-font
  Stream #1:5: Attachment: ttf
      Metadata:
        filename        : TkhO4vNj.ttf
        mimetype        : application/x-truetype-font
  Stream #1:6: Attachment: ttf
      Metadata:
        filename        : bonzai.ttf
        mimetype        : application/x-truetype-font
  Stream #1:7: Attachment: ttf
      Metadata:
        filename        : OpenSans-Semibold.ttf
        mimetype        : application/x-truetype-font
Stream mapping:
  Stream #0:0 (hevc) -> settb:default
  Stream #1:0 (h264) -> settb:default
  ssim:default -> Stream #0:0 (wrapped_avframe)
  Stream #0:1 -> #0:1 (aac (native) -> pcm_s16le (native))
[swscaler @ 000002673da4c9c0] No accelerated colorspace conversion found from yuv420p to bgr48le.
[swscaler @ 000002673dc47800] No accelerated colorspace conversion found from yuv420p to bgr48le.
[swscaler @ 000002673dd2c800] No accelerated colorspace conversion found from yuv420p to bgr48le.
[swscaler @ 000002673df1ea40] No accelerated colorspace conversion found from yuv420p to bgr48le.
[swscaler @ 000002673df3fb40] No accelerated colorspace conversion found from yuv420p to bgr48le.
[swscaler @ 000002673e110040] No accelerated colorspace conversion found from yuv420p to bgr48le.
[swscaler @ 000002673e13b900] No accelerated colorspace conversion found from yuv420p to bgr48le.
[swscaler @ 000002673e1a0900] No accelerated colorspace conversion found from yuv420p to bgr48le.
[swscaler @ 000002673e205040] No accelerated colorspace conversion found from yuv420p to bgr48le.
[swscaler @ 000002673e28f040] No accelerated colorspace conversion found from yuv420p to bgr48le.
[swscaler @ 000002673e2f7040] No accelerated colorspace conversion found from yuv420p to bgr48le.
[swscaler @ 000002673e35a040] No accelerated colorspace conversion found from yuv420p to bgr48le.
[swscaler @ 000002673e3bc040] No accelerated colorspace conversion found from yuv420p to bgr48le.
[swscaler @ 000002673e3e5480] No accelerated colorspace conversion found from yuv420p to bgr48le.
[swscaler @ 0000026742a23040] No accelerated colorspace conversion found from yuv420p to bgr48le.
[swscaler @ 0000026742a85040] No accelerated colorspace conversion found from yuv420p to bgr48le.
Output #0, null, to 'pipe:':
  Metadata:
    encoder         : Lavf61.7.100
  Stream #0:0: Video: wrapped_avframe, yuv420p10le(tv, bt709, progressive), 1280x720 [SAR 1:1 DAR 16:9], q=2-31, 200 kb/s, 23.98 fps, 23.98 tbn
      Metadata:
        encoder         : Lavc61.19.100 wrapped_avframe
  Stream #0:1(rus): Audio: pcm_s16le, 48000 Hz, stereo, s16, 1536 kb/s (default)
      Metadata:
        title           : Metacarmex & Say
        _STATISTICS_TAGS: BPS DURATION NUMBER_OF_FRAMES NUMBER_OF_BYTES
        BPS             : 193348
        DURATION        : 00:23:40.565000000
        NUMBER_OF_FRAMES: 66590
        NUMBER_OF_BYTES : 34332997
        _STATISTICS_WRITING_APP: mkvpropedit v66.0.0 ('Josie') 64-bit
        _STATISTICS_WRITING_DATE_UTC: 2025-06-23 09:11:22
        encoder         : Lavc61.19.100 pcm_s16le
frame=   81 fps=0.0 q=-0.0 size=N/A time=00:00:03.37 bitrate=N/A speed=6.51x    frame=  181 fps=174 q=-0.0 size=N/A time=00:00:07.54 bitrate=N/A speed=7.25x    frame=  272 fps=176 q=-0.0 size=N/A time=00:00:11.34 bitrate=N/A speed=7.32x    frame=  364 fps=177 q=-0.0 size=N/A time=00:00:15.18 bitrate=N/A speed=7.37x    frame=  465 fps=180 q=-0.0 size=N/A time=00:00:19.39 bitrate=N/A speed=7.51x    frame=  563 fps=181 q=-0.0 size=N/A time=00:00:23.48 bitrate=N/A speed=7.57x    frame=  660 fps=183 q=-0.0 size=N/A time=00:00:27.52 bitrate=N/A speed=7.62x    frame=  761 fps=184 q=-0.0 size=N/A time=00:00:31.74 bitrate=N/A speed=7.68x    frame=  852 fps=184 q=-0.0 size=N/A time=00:00:35.53 bitrate=N/A speed=7.66x    frame=  957 fps=185 q=-0.0 size=N/A time=00:00:39.91 bitrate=N/A speed=7.73x    frame= 1057 fps=186 q=-0.0 size=N/A time=00:00:44.08 bitrate=N/A speed=7.77x    frame= 1154 fps=187 q=-0.0 size=N/A time=00:00:48.13 bitrate=N/A speed=7.78x    frame= 1256 fps=187 q=-0.0 size=N/A time=00:00:52.38 bitrate=N/A speed=7.81x    frame= 1353 fps=188 q=-0.0 size=N/A time=00:00:56.43 bitrate=N/A speed=7.82x    frame= 1451 fps=188 q=-0.0 size=N/A time=00:01:00.51 bitrate=N/A speed=7.82x    frame= 1545 fps=187 q=-0.0 size=N/A time=00:01:04.43 bitrate=N/A speed= 7.8x    frame= 1647 fps=188 q=-0.0 size=N/A time=00:01:08.69 bitrate=N/A speed=7.84x    frame= 1735 fps=187 q=-0.0 size=N/A time=00:01:12.36 bitrate=N/A speed= 7.8x    frame= 1840 fps=188 q=-0.0 size=N/A time=00:01:16.74 bitrate=N/A speed=7.83x    frame= 1936 fps=188 q=-0.0 size=N/A time=00:01:20.74 bitrate=N/A speed=7.83x    frame= 2028 fps=187 q=-0.0 size=N/A time=00:01:24.58 bitrate=N/A speed=7.81x    frame= 2128 fps=188 q=-0.0 size=N/A time=00:01:28.75 bitrate=N/A speed=7.82x    frame= 2220 fps=187 q=-0.0 size=N/A time=00:01:32.59 bitrate=N/A speed=7.81x    frame= 2324 fps=188 q=-0.0 size=N/A time=00:01:36.93 bitrate=N/A speed=7.83x    frame= 2418 fps=188 q=-0.0 size=N/A time=00:01:40.85 bitrate=N/A speed=7.82x    frame= 2517 fps=188 q=-0.0 size=N/A time=00:01:44.97 bitrate=N/A speed=7.83x    frame= 2618 fps=188 q=-0.0 size=N/A time=00:01:49.19 bitrate=N/A speed=7.84x    frame= 2716 fps=188 q=-0.0 size=N/A time=00:01:53.27 bitrate=N/A speed=7.85x    frame= 2809 fps=188 q=-0.0 size=N/A time=00:01:57.15 bitrate=N/A speed=7.84x    frame= 2906 fps=188 q=-0.0 size=N/A time=00:02:01.20 bitrate=N/A speed=7.83x    frame= 2992 fps=187 q=-0.0 size=N/A time=00:02:04.79 bitrate=N/A speed=7.81x    frame= 3099 fps=188 q=-0.0 size=N/A time=00:02:09.25 bitrate=N/A speed=7.83x    frame= 3197 fps=188 q=-0.0 size=N/A time=00:02:13.34 bitrate=N/A speed=7.84x    frame= 3295 fps=188 q=-0.0 size=N/A time=00:02:17.42 bitrate=N/A speed=7.84x    frame= 3395 fps=188 q=-0.0 size=N/A time=00:02:21.59 bitrate=N/A speed=7.84x    frame= 3479 fps=187 q=-0.0 size=N/A time=00:02:25.10 bitrate=N/A speed=7.82x    frame= 3588 fps=188 q=-0.0 size=N/A time=00:02:29.64 bitrate=N/A speed=7.84x    frame= 3688 fps=188 q=-0.0 size=N/A time=00:02:33.82 bitrate=N/A speed=7.85x    frame= 3786 fps=188 q=-0.0 size=N/A time=00:02:37.90 bitrate=N/A speed=7.85x    frame= 3887 fps=188 q=-0.0 size=N/A time=00:02:42.12 bitrate=N/A speed=7.86x    frame= 3982 fps=188 q=-0.0 size=N/A time=00:02:46.08 bitrate=N/A speed=7.86x    frame= 4081 fps=188 q=-0.0 size=N/A time=00:02:50.21 bitrate=N/A speed=7.86x    frame= 4180 fps=189 q=-0.0 size=N/A time=00:02:54.34 bitrate=N/A speed=7.86x    frame= 4284 fps=189 q=-0.0 size=N/A time=00:02:58.67 bitrate=N/A speed=7.88x    frame= 4386 fps=189 q=-0.0 size=N/A time=00:03:02.93 bitrate=N/A speed=7.88x    frame= 4476 fps=189 q=-0.0 size=N/A time=00:03:06.68 bitrate=N/A speed=7.87x    frame= 4585 fps=189 q=-0.0 size=N/A time=00:03:11.23 bitrate=N/A speed=7.89x    frame= 4683 fps=189 q=-0.0 size=N/A time=00:03:15.32 bitrate=N/A speed=7.89x    frame= 4784 fps=189 q=-0.0 size=N/A time=00:03:19.53 bitrate=N/A speed= 7.9x    frame= 4886 fps=189 q=-0.0 size=N/A time=00:03:23.78 bitrate=N/A speed= 7.9x    frame= 4985 fps=190 q=-0.0 size=N/A time=00:03:27.91 bitrate=N/A speed=7.91x    frame= 5083 fps=190 q=-0.0 size=N/A time=00:03:32.00 bitrate=N/A speed=7.91x    frame= 5183 fps=190 q=-0.0 size=N/A time=00:03:36.17 bitrate=N/A speed=7.91x    frame= 5290 fps=190 q=-0.0 size=N/A time=00:03:40.63 bitrate=N/A speed=7.92x    frame= 5387 fps=190 q=-0.0 size=N/A time=00:03:44.68 bitrate=N/A speed=7.92x    frame= 5493 fps=190 q=-0.0 size=N/A time=00:03:49.10 bitrate=N/A speed=7.93x    frame= 5591 fps=190 q=-0.0 size=N/A time=00:03:53.19 bitrate=N/A speed=7.94x    frame= 5687 fps=190 q=-0.0 size=N/A time=00:03:57.19 bitrate=N/A speed=7.93x    frame= 5777 fps=190 q=-0.0 size=N/A time=00:04:00.94 bitrate=N/A speed=7.92x    frame= 5880 fps=190 q=-0.0 size=N/A time=00:04:05.24 bitrate=N/A speed=7.93x    frame= 5978 fps=190 q=-0.0 size=N/A time=00:04:09.33 bitrate=N/A speed=7.93x    frame= 6081 fps=190 q=-0.0 size=N/A time=00:04:13.62 bitrate=N/A speed=7.93x    frame= 6179 fps=190 q=-0.0 size=N/A time=00:04:17.71 bitrate=N/A speed=7.93x    frame= 6274 fps=190 q=-0.0 size=N/A time=00:04:21.67 bitrate=N/A speed=7.93x    frame= 6376 fps=190 q=-0.0 size=N/A time=00:04:25.93 bitrate=N/A speed=7.94x    frame= 6476 fps=190 q=-0.0 size=N/A time=00:04:30.10 bitrate=N/A speed=7.94x    frame= 6578 fps=190 q=-0.0 size=N/A time=00:04:34.35 bitrate=N/A speed=7.94x    frame= 6678 fps=190 q=-0.0 size=N/A time=00:04:38.52 bitrate=N/A speed=7.94x    frame= 6779 fps=191 q=-0.0 size=N/A time=00:04:42.74 bitrate=N/A speed=7.95x    frame= 6876 fps=191 q=-0.0 size=N/A time=00:04:46.78 bitrate=N/A speed=7.95x    frame= 6977 fps=191 q=-0.0 size=N/A time=00:04:50.99 bitrate=N/A speed=7.95x    frame= 7076 fps=191 q=-0.0 size=N/A time=00:04:55.12 bitrate=N/A speed=7.95x    frame= 7178 fps=191 q=-0.0 size=N/A time=00:04:59.38 bitrate=N/A speed=7.95x    frame= 7278 fps=191 q=-0.0 size=N/A time=00:05:03.55 bitrate=N/A speed=7.95x    frame= 7377 fps=191 q=-0.0 size=N/A time=00:05:07.68 bitrate=N/A speed=7.95x    frame= 7478 fps=191 q=-0.0 size=N/A time=00:05:11.89 bitrate=N/A speed=7.96x    frame= 7578 fps=191 q=-0.0 size=N/A time=00:05:16.06 bitrate=N/A speed=7.96x    frame= 7674 fps=191 q=-0.0 size=N/A time=00:05:20.06 bitrate=N/A speed=7.95x    frame= 7770 fps=191 q=-0.0 size=N/A time=00:05:24.07 bitrate=N/A speed=7.95x    frame= 7873 fps=191 q=-0.0 size=N/A time=00:05:28.36 bitrate=N/A speed=7.96x    frame= 7969 fps=191 q=-0.0 size=N/A time=00:05:32.37 bitrate=N/A speed=7.95x    frame= 8073 fps=191 q=-0.0 size=N/A time=00:05:36.71 bitrate=N/A speed=7.96x    frame= 8170 fps=191 q=-0.0 size=N/A time=00:05:40.75 bitrate=N/A speed=7.96x    frame= 8260 fps=191 q=-0.0 size=N/A time=00:05:44.51 bitrate=N/A speed=7.95x    frame= 8361 fps=191 q=-0.0 size=N/A time=00:05:48.72 bitrate=N/A speed=7.95x    frame= 8468 fps=191 q=-0.0 size=N/A time=00:05:53.18 bitrate=N/A speed=7.96x    frame= 8556 fps=191 q=-0.0 size=N/A time=00:05:56.85 bitrate=N/A speed=7.95x    frame= 8665 fps=191 q=-0.0 size=N/A time=00:06:01.40 bitrate=N/A speed=7.96x    frame= 8767 fps=191 q=-0.0 size=N/A time=00:06:05.65 bitrate=N/A speed=7.96x    frame= 8865 fps=191 q=-0.0 size=N/A time=00:06:09.74 bitrate=N/A speed=7.96x    frame= 8965 fps=191 q=-0.0 size=N/A time=00:06:13.91 bitrate=N/A speed=7.96x    frame= 9061 fps=191 q=-0.0 size=N/A time=00:06:17.91 bitrate=N/A speed=7.96x    frame= 9155 fps=191 q=-0.0 size=N/A time=00:06:21.83 bitrate=N/A speed=7.96x    frame= 9259 fps=191 q=-0.0 size=N/A time=00:06:26.17 bitrate=N/A speed=7.96x    frame= 9359 fps=191 q=-0.0 size=N/A time=00:06:30.34 bitrate=N/A speed=7.97x    frame= 9458 fps=191 q=-0.0 size=N/A time=00:06:34.47 bitrate=N/A speed=7.97x    frame= 9561 fps=191 q=-0.0 size=N/A time=00:06:38.77 bitrate=N/A speed=7.97x    frame= 9658 fps=191 q=-0.0 size=N/A time=00:06:42.81 bitrate=N/A speed=7.97x    frame= 9757 fps=191 q=-0.0 size=N/A time=00:06:46.94 bitrate=N/A speed=7.97x    frame= 9854 fps=191 q=-0.0 size=N/A time=00:06:50.99 bitrate=N/A speed=7.97x    frame= 9948 fps=191 q=-0.0 size=N/A time=00:06:54.91 bitrate=N/A speed=7.97x    frame=10051 fps=191 q=-0.0 size=N/A time=00:06:59.21 bitrate=N/A speed=7.97x    frame=10148 fps=191 q=-0.0 size=N/A time=00:07:03.25 bitrate=N/A speed=7.97x    frame=10248 fps=191 q=-0.0 size=N/A time=00:07:07.42 bitrate=N/A speed=7.97x    frame=10338 fps=191 q=-0.0 size=N/A time=00:07:11.18 bitrate=N/A speed=7.96x    frame=10439 fps=191 q=-0.0 size=N/A time=00:07:15.39 bitrate=N/A speed=7.96x    frame=10538 fps=191 q=-0.0 size=N/A time=00:07:19.52 bitrate=N/A speed=7.96x    frame=10635 fps=191 q=-0.0 size=N/A time=00:07:23.56 bitrate=N/A speed=7.96x    frame=10735 fps=191 q=-0.0 size=N/A time=00:07:27.73 bitrate=N/A speed=7.96x    frame=10832 fps=191 q=-0.0 size=N/A time=00:07:31.78 bitrate=N/A speed=7.96x    frame=10924 fps=191 q=-0.0 size=N/A time=00:07:35.62 bitrate=N/A speed=7.96x    frame=11027 fps=191 q=-0.0 size=N/A time=00:07:39.91 bitrate=N/A speed=7.96x    frame=11128 fps=191 q=-0.0 size=N/A time=00:07:44.13 bitrate=N/A speed=7.96x    frame=11224 fps=191 q=-0.0 size=N/A time=00:07:48.13 bitrate=N/A speed=7.96x    frame=11321 fps=191 q=-0.0 size=N/A time=00:07:52.18 bitrate=N/A speed=7.96x    frame=11418 fps=191 q=-0.0 size=N/A time=00:07:56.22 bitrate=N/A speed=7.96x    frame=11509 fps=191 q=-0.0 size=N/A time=00:08:00.02 bitrate=N/A speed=7.95x    frame=11612 fps=191 q=-0.0 size=N/A time=00:08:04.31 bitrate=N/A speed=7.96x    frame=11711 fps=191 q=-0.0 size=N/A time=00:08:08.44 bitrate=N/A speed=7.96x    frame=11804 fps=191 q=-0.0 size=N/A time=00:08:12.32 bitrate=N/A speed=7.95x    frame=11906 fps=191 q=-0.0 size=N/A time=00:08:16.57 bitrate=N/A speed=7.96x    frame=12005 fps=191 q=-0.0 size=N/A time=00:08:20.70 bitrate=N/A speed=7.96x    frame=12102 fps=191 q=-0.0 size=N/A time=00:08:24.75 bitrate=N/A speed=7.96x    frame=12188 fps=191 q=-0.0 size=N/A time=00:08:28.34 bitrate=N/A speed=7.95x    frame=12302 fps=191 q=-0.0 size=N/A time=00:08:33.09 bitrate=N/A speed=7.96x    frame=12395 fps=191 q=-0.0 size=N/A time=00:08:36.97 bitrate=N/A speed=7.95x    frame=12497 fps=191 q=-0.0 size=N/A time=00:08:41.22 bitrate=N/A speed=7.96x    frame=12599 fps=191 q=-0.0 size=N/A time=00:08:45.48 bitrate=N/A speed=7.96x    frame=12698 fps=191 q=-0.0 size=N/A time=00:08:49.61 bitrate=N/A speed=7.96x    frame=12790 fps=191 q=-0.0 size=N/A time=00:08:53.44 bitrate=N/A speed=7.96x    frame=12894 fps=191 q=-0.0 size=N/A time=00:08:57.78 bitrate=N/A speed=7.96x    frame=12993 fps=191 q=-0.0 size=N/A time=00:09:01.91 bitrate=N/A speed=7.96x    frame=13093 fps=191 q=-0.0 size=N/A time=00:09:06.08 bitrate=N/A speed=7.96x    frame=13182 fps=191 q=-0.0 size=N/A time=00:09:09.79 bitrate=N/A speed=7.96x    frame=13289 fps=191 q=-0.0 size=N/A time=00:09:14.26 bitrate=N/A speed=7.96x    frame=13395 fps=191 q=-0.0 size=N/A time=00:09:18.68 bitrate=N/A speed=7.96x    frame=13490 fps=191 q=-0.0 size=N/A time=00:09:22.64 bitrate=N/A speed=7.96x    frame=13595 fps=191 q=-0.0 size=N/A time=00:09:27.02 bitrate=N/A speed=7.97x    frame=13695 fps=191 q=-0.0 size=N/A time=00:09:31.19 bitrate=N/A speed=7.97x    frame=13796 fps=191 q=-0.0 size=N/A time=00:09:35.40 bitrate=N/A speed=7.97x    frame=13897 fps=191 q=-0.0 size=N/A time=00:09:39.62 bitrate=N/A speed=7.97x    frame=13996 fps=191 q=-0.0 size=N/A time=00:09:43.74 bitrate=N/A speed=7.97x    frame=14100 fps=191 q=-0.0 size=N/A time=00:09:48.08 bitrate=N/A speed=7.97x    frame=14198 fps=191 q=-0.0 size=N/A time=00:09:52.17 bitrate=N/A speed=7.97x    frame=14302 fps=191 q=-0.0 size=N/A time=00:09:56.51 bitrate=N/A speed=7.97x    frame=14396 fps=191 q=-0.0 size=N/A time=00:10:00.43 bitrate=N/A speed=7.97x    frame=14491 fps=191 q=-0.0 size=N/A time=00:10:04.39 bitrate=N/A speed=7.97x    frame=14598 fps=191 q=-0.0 size=N/A time=00:10:08.85 bitrate=N/A speed=7.98x    frame=14697 fps=191 q=-0.0 size=N/A time=00:10:12.98 bitrate=N/A speed=7.97x    frame=14798 fps=191 q=-0.0 size=N/A time=00:10:17.19 bitrate=N/A speed=7.98x    frame=14899 fps=191 q=-0.0 size=N/A time=00:10:21.41 bitrate=N/A speed=7.98x    frame=14998 fps=191 q=-0.0 size=N/A time=00:10:25.54 bitrate=N/A speed=7.98x    frame=15098 fps=191 q=-0.0 size=N/A time=00:10:29.71 bitrate=N/A speed=7.98x    frame=15199 fps=191 q=-0.0 size=N/A time=00:10:33.92 bitrate=N/A speed=7.98x    frame=15300 fps=191 q=-0.0 size=N/A time=00:10:38.13 bitrate=N/A speed=7.98x    frame=15399 fps=191 q=-0.0 size=N/A time=00:10:42.26 bitrate=N/A speed=7.98x    frame=15499 fps=191 q=-0.0 size=N/A time=00:10:46.43 bitrate=N/A speed=7.98x    frame=15603 fps=191 q=-0.0 size=N/A time=00:10:50.77 bitrate=N/A speed=7.98x    frame=15702 fps=191 q=-0.0 size=N/A time=00:10:54.90 bitrate=N/A speed=7.99x    frame=15791 fps=191 q=-0.0 size=N/A time=00:10:58.61 bitrate=N/A speed=7.98x    frame=15904 fps=191 q=-0.0 size=N/A time=00:11:03.32 bitrate=N/A speed=7.99x    frame=16000 fps=191 q=-0.0 size=N/A time=00:11:07.33 bitrate=N/A speed=7.99x    frame=16098 fps=191 q=-0.0 size=N/A time=00:11:11.42 bitrate=N/A speed=7.99x    frame=16208 fps=192 q=-0.0 size=N/A time=00:11:16.00 bitrate=N/A speed=7.99x    frame=16309 fps=192 q=-0.0 size=N/A time=00:11:20.22 bitrate=N/A speed=7.99x    frame=16410 fps=192 q=-0.0 size=N/A time=00:11:24.43 bitrate=N/A speed=7.99x    frame=16505 fps=192 q=-0.0 size=N/A time=00:11:28.39 bitrate=N/A speed=7.99x    frame=16610 fps=192 q=-0.0 size=N/A time=00:11:32.77 bitrate=N/A speed=7.99x    frame=16709 fps=192 q=-0.0 size=N/A time=00:11:36.90 bitrate=N/A speed=   8x    frame=16810 fps=192 q=-0.0 size=N/A time=00:11:41.11 bitrate=N/A speed=   8x    frame=16910 fps=192 q=-0.0 size=N/A time=00:11:45.28 bitrate=N/A speed=   8x    frame=17004 fps=192 q=-0.0 size=N/A time=00:11:49.20 bitrate=N/A speed=7.99x    frame=17092 fps=192 q=-0.0 size=N/A time=00:11:52.87 bitrate=N/A speed=7.99x    frame=17206 fps=192 q=-0.0 size=N/A time=00:11:57.63 bitrate=N/A speed=   8x    frame=17295 fps=192 q=-0.0 size=N/A time=00:12:01.34 bitrate=N/A speed=7.99x    frame=17394 fps=192 q=-0.0 size=N/A time=00:12:05.47 bitrate=N/A speed=7.99x    frame=17494 fps=192 q=-0.0 size=N/A time=00:12:09.64 bitrate=N/A speed=7.99x    frame=17589 fps=192 q=-0.0 size=N/A time=00:12:13.60 bitrate=N/A speed=7.99x    frame=17687 fps=192 q=-0.0 size=N/A time=00:12:17.69 bitrate=N/A speed=7.99x    frame=17787 fps=192 q=-0.0 size=N/A time=00:12:21.86 bitrate=N/A speed=7.99x    frame=17879 fps=192 q=-0.0 size=N/A time=00:12:25.70 bitrate=N/A speed=7.99x    frame=17975 fps=191 q=-0.0 size=N/A time=00:12:29.70 bitrate=N/A speed=7.99x    frame=18072 fps=191 q=-0.0 size=N/A time=00:12:33.75 bitrate=N/A speed=7.98x    frame=18176 fps=192 q=-0.0 size=N/A time=00:12:38.09 bitrate=N/A speed=7.99x    frame=18279 fps=192 q=-0.0 size=N/A time=00:12:42.38 bitrate=N/A speed=7.99x    frame=18377 fps=192 q=-0.0 size=N/A time=00:12:46.47 bitrate=N/A speed=7.99x    frame=18464 fps=191 q=-0.0 size=N/A time=00:12:50.10 bitrate=N/A speed=7.98x    frame=18576 fps=192 q=-0.0 size=N/A time=00:12:54.77 bitrate=N/A speed=7.99x    frame=18671 fps=192 q=-0.0 size=N/A time=00:12:58.73 bitrate=N/A speed=7.99x    frame=18766 fps=191 q=-0.0 size=N/A time=00:13:02.69 bitrate=N/A speed=7.99x    frame=18876 fps=192 q=-0.0 size=N/A time=00:13:07.28 bitrate=N/A speed=7.99x    frame=18966 fps=192 q=-0.0 size=N/A time=00:13:11.04 bitrate=N/A speed=7.99x    frame=19070 fps=192 q=-0.0 size=N/A time=00:13:15.37 bitrate=N/A speed=7.99x    frame=19174 fps=192 q=-0.0 size=N/A time=00:13:19.71 bitrate=N/A speed=7.99x    frame=19273 fps=192 q=-0.0 size=N/A time=00:13:23.84 bitrate=N/A speed=7.99x    frame=19369 fps=192 q=-0.0 size=N/A time=00:13:27.84 bitrate=N/A speed=7.99x    frame=19457 fps=191 q=-0.0 size=N/A time=00:13:31.51 bitrate=N/A speed=7.99x    frame=19566 fps=192 q=-0.0 size=N/A time=00:13:36.06 bitrate=N/A speed=7.99x    frame=19668 fps=192 q=-0.0 size=N/A time=00:13:40.31 bitrate=N/A speed=7.99x    frame=19769 fps=192 q=-0.0 size=N/A time=00:13:44.53 bitrate=N/A speed=7.99x    frame=19872 fps=192 q=-0.0 size=N/A time=00:13:48.82 bitrate=N/A speed=7.99x    frame=19959 fps=192 q=-0.0 size=N/A time=00:13:52.45 bitrate=N/A speed=7.99x    frame=20074 fps=192 q=-0.0 size=N/A time=00:13:57.25 bitrate=N/A speed=   8x    frame=20171 fps=192 q=-0.0 size=N/A time=00:14:01.29 bitrate=N/A speed=   8x    frame=20273 fps=192 q=-0.0 size=N/A time=00:14:05.55 bitrate=N/A speed=   8x    frame=20360 fps=192 q=-0.0 size=N/A time=00:14:09.18 bitrate=N/A speed=7.99x    frame=20471 fps=192 q=-0.0 size=N/A time=00:14:13.81 bitrate=N/A speed=   8x    frame=20568 fps=192 q=-0.0 size=N/A time=00:14:17.85 bitrate=N/A speed=   8x    frame=20669 fps=192 q=-0.0 size=N/A time=00:14:22.06 bitrate=N/A speed=   8x    frame=20767 fps=192 q=-0.0 size=N/A time=00:14:26.15 bitrate=N/A speed=   8x    frame=20864 fps=192 q=-0.0 size=N/A time=00:14:30.20 bitrate=N/A speed=   8x    frame=20970 fps=192 q=-0.0 size=N/A time=00:14:34.62 bitrate=N/A speed=   8x    frame=21069 fps=192 q=-0.0 size=N/A time=00:14:38.75 bitrate=N/A speed=   8x    frame=21168 fps=192 q=-0.0 size=N/A time=00:14:42.88 bitrate=N/A speed=   8x    frame=21266 fps=192 q=-0.0 size=N/A time=00:14:46.96 bitrate=N/A speed=   8x    frame=21357 fps=192 q=-0.0 size=N/A time=00:14:50.76 bitrate=N/A speed=   8x    frame=21461 fps=192 q=-0.0 size=N/A time=00:14:55.10 bitrate=N/A speed=   8x    frame=21560 fps=192 q=-0.0 size=N/A time=00:14:59.23 bitrate=N/A speed=   8x    frame=21666 fps=192 q=-0.0 size=N/A time=00:15:03.65 bitrate=N/A speed=   8x    frame=21764 fps=192 q=-0.0 size=N/A time=00:15:07.74 bitrate=N/A speed=   8x    frame=21860 fps=192 q=-0.0 size=N/A time=00:15:11.74 bitrate=N/A speed=   8x    frame=21959 fps=192 q=-0.0 size=N/A time=00:15:15.87 bitrate=N/A speed=   8x    frame=22061 fps=192 q=-0.0 size=N/A time=00:15:20.12 bitrate=N/A speed=   8x    frame=22154 fps=192 q=-0.0 size=N/A time=00:15:24.00 bitrate=N/A speed=   8x    frame=22259 fps=192 q=-0.0 size=N/A time=00:15:28.38 bitrate=N/A speed=   8x    frame=22366 fps=192 q=-0.0 size=N/A time=00:15:32.84 bitrate=N/A speed=   8x    frame=22462 fps=192 q=-0.0 size=N/A time=00:15:36.85 bitrate=N/A speed=   8x    frame=22565 fps=192 q=-0.0 size=N/A time=00:15:41.14 bitrate=N/A speed=   8x    frame=22664 fps=192 q=-0.0 size=N/A time=00:15:45.27 bitrate=N/A speed=   8x    frame=22763 fps=192 q=-0.0 size=N/A time=00:15:49.40 bitrate=N/A speed=   8x    frame=22862 fps=192 q=-0.0 size=N/A time=00:15:53.53 bitrate=N/A speed=   8x    frame=22967 fps=192 q=-0.0 size=N/A time=00:15:57.91 bitrate=N/A speed=8.01x    frame=23061 fps=192 q=-0.0 size=N/A time=00:16:01.83 bitrate=N/A speed=   8x    frame=23165 fps=192 q=-0.0 size=N/A time=00:16:06.17 bitrate=N/A speed=8.01x    frame=23263 fps=192 q=-0.0 size=N/A time=00:16:10.26 bitrate=N/A speed=   8x    frame=23362 fps=192 q=-0.0 size=N/A time=00:16:14.39 bitrate=N/A speed=8.01x    frame=23465 fps=192 q=-0.0 size=N/A time=00:16:18.68 bitrate=N/A speed=8.01x    frame=23559 fps=192 q=-0.0 size=N/A time=00:16:22.60 bitrate=N/A speed=   8x    frame=23653 fps=192 q=-0.0 size=N/A time=00:16:26.52 bitrate=N/A speed=   8x    frame=23759 fps=192 q=-0.0 size=N/A time=00:16:30.94 bitrate=N/A speed=8.01x    frame=23860 fps=192 q=-0.0 size=N/A time=00:16:35.16 bitrate=N/A speed=8.01x    frame=23961 fps=192 q=-0.0 size=N/A time=00:16:39.37 bitrate=N/A speed=8.01x    frame=24060 fps=192 q=-0.0 size=N/A time=00:16:43.50 bitrate=N/A speed=8.01x    frame=24153 fps=192 q=-0.0 size=N/A time=00:16:47.38 bitrate=N/A speed=8.01x    frame=24262 fps=192 q=-0.0 size=N/A time=00:16:51.92 bitrate=N/A speed=8.01x    frame=24362 fps=192 q=-0.0 size=N/A time=00:16:56.09 bitrate=N/A speed=8.01x    frame=24452 fps=192 q=-0.0 size=N/A time=00:16:59.85 bitrate=N/A speed=8.01x    frame=24566 fps=192 q=-0.0 size=N/A time=00:17:04.60 bitrate=N/A speed=8.01x    frame=24662 fps=192 q=-0.0 size=N/A time=00:17:08.61 bitrate=N/A speed=8.01x    frame=24760 fps=192 q=-0.0 size=N/A time=00:17:12.69 bitrate=N/A speed=8.01x    frame=24860 fps=192 q=-0.0 size=N/A time=00:17:16.86 bitrate=N/A speed=8.01x    frame=24962 fps=192 q=-0.0 size=N/A time=00:17:21.12 bitrate=N/A speed=8.01x    frame=25055 fps=192 q=-0.0 size=N/A time=00:17:25.00 bitrate=N/A speed=8.01x    frame=25163 fps=192 q=-0.0 size=N/A time=00:17:29.50 bitrate=N/A speed=8.01x    frame=25261 fps=192 q=-0.0 size=N/A time=00:17:33.59 bitrate=N/A speed=8.01x    frame=25357 fps=192 q=-0.0 size=N/A time=00:17:37.59 bitrate=N/A speed=8.01x    frame=25457 fps=192 q=-0.0 size=N/A time=00:17:41.76 bitrate=N/A speed=8.01x    frame=25556 fps=192 q=-0.0 size=N/A time=00:17:45.89 bitrate=N/A speed=8.01x    frame=25648 fps=192 q=-0.0 size=N/A time=00:17:49.73 bitrate=N/A speed=8.01x    frame=25749 fps=192 q=-0.0 size=N/A time=00:17:53.94 bitrate=N/A speed=8.01x    frame=25847 fps=192 q=-0.0 size=N/A time=00:17:58.03 bitrate=N/A speed=8.01x    frame=25951 fps=192 q=-0.0 size=N/A time=00:18:02.37 bitrate=N/A speed=8.01x    frame=26049 fps=192 q=-0.0 size=N/A time=00:18:06.46 bitrate=N/A speed=8.01x    frame=26149 fps=192 q=-0.0 size=N/A time=00:18:10.63 bitrate=N/A speed=8.01x    frame=26247 fps=192 q=-0.0 size=N/A time=00:18:14.71 bitrate=N/A speed=8.01x    frame=26348 fps=192 q=-0.0 size=N/A time=00:18:18.93 bitrate=N/A speed=8.01x    frame=26451 fps=192 q=-0.0 size=N/A time=00:18:23.22 bitrate=N/A speed=8.01x    frame=26550 fps=192 q=-0.0 size=N/A time=00:18:27.35 bitrate=N/A speed=8.01x    frame=26650 fps=192 q=-0.0 size=N/A time=00:18:31.52 bitrate=N/A speed=8.01x    frame=26742 fps=192 q=-0.0 size=N/A time=00:18:35.36 bitrate=N/A speed=8.01x    frame=26853 fps=192 q=-0.0 size=N/A time=00:18:39.99 bitrate=N/A speed=8.01x    frame=26953 fps=192 q=-0.0 size=N/A time=00:18:44.16 bitrate=N/A speed=8.01x    frame=27055 fps=192 q=-0.0 size=N/A time=00:18:48.41 bitrate=N/A speed=8.01x    frame=27155 fps=192 q=-0.0 size=N/A time=00:18:52.58 bitrate=N/A speed=8.01x    frame=27243 fps=192 q=-0.0 size=N/A time=00:18:56.26 bitrate=N/A speed=8.01x    frame=27358 fps=192 q=-0.0 size=N/A time=00:19:01.05 bitrate=N/A speed=8.02x    frame=27452 fps=192 q=-0.0 size=N/A time=00:19:04.97 bitrate=N/A speed=8.01x    frame=27555 fps=192 q=-0.0 size=N/A time=00:19:09.27 bitrate=N/A speed=8.02x    frame=27657 fps=192 q=-0.0 size=N/A time=00:19:13.52 bitrate=N/A speed=8.02x    frame=27759 fps=192 q=-0.0 size=N/A time=00:19:17.78 bitrate=N/A speed=8.02x    frame=27854 fps=192 q=-0.0 size=N/A time=00:19:21.74 bitrate=N/A speed=8.02x    frame=27948 fps=192 q=-0.0 size=N/A time=00:19:25.66 bitrate=N/A speed=8.01x    frame=28060 fps=192 q=-0.0 size=N/A time=00:19:30.33 bitrate=N/A speed=8.02x    frame=28158 fps=192 q=-0.0 size=N/A time=00:19:34.42 bitrate=N/A speed=8.02x    frame=28256 fps=192 q=-0.0 size=N/A time=00:19:38.51 bitrate=N/A speed=8.02x    frame=28355 fps=192 q=-0.0 size=N/A time=00:19:42.63 bitrate=N/A speed=8.02x    frame=28455 fps=192 q=-0.0 size=N/A time=00:19:46.81 bitrate=N/A speed=8.02x    frame=28553 fps=192 q=-0.0 size=N/A time=00:19:50.89 bitrate=N/A speed=8.02x    frame=28648 fps=192 q=-0.0 size=N/A time=00:19:54.86 bitrate=N/A speed=8.02x    frame=28748 fps=192 q=-0.0 size=N/A time=00:19:59.03 bitrate=N/A speed=8.02x    frame=28851 fps=192 q=-0.0 size=N/A time=00:20:03.32 bitrate=N/A speed=8.02x    frame=28955 fps=192 q=-0.0 size=N/A time=00:20:07.66 bitrate=N/A speed=8.02x    frame=29052 fps=192 q=-0.0 size=N/A time=00:20:11.71 bitrate=N/A speed=8.02x    frame=29146 fps=192 q=-0.0 size=N/A time=00:20:15.63 bitrate=N/A speed=8.02x    frame=29245 fps=192 q=-0.0 size=N/A time=00:20:19.76 bitrate=N/A speed=8.02x    frame=29345 fps=192 q=-0.0 size=N/A time=00:20:23.93 bitrate=N/A speed=8.02x    frame=29443 fps=192 q=-0.0 size=N/A time=00:20:28.01 bitrate=N/A speed=8.02x    frame=29538 fps=192 q=-0.0 size=N/A time=00:20:31.98 bitrate=N/A speed=8.02x    frame=29638 fps=192 q=-0.0 size=N/A time=00:20:36.15 bitrate=N/A speed=8.02x    frame=29743 fps=192 q=-0.0 size=N/A time=00:20:40.53 bitrate=N/A speed=8.02x    frame=29841 fps=192 q=-0.0 size=N/A time=00:20:44.61 bitrate=N/A speed=8.02x    frame=29941 fps=192 q=-0.0 size=N/A time=00:20:48.78 bitrate=N/A speed=8.02x    frame=30041 fps=192 q=-0.0 size=N/A time=00:20:52.96 bitrate=N/A speed=8.02x    frame=30139 fps=192 q=-0.0 size=N/A time=00:20:57.04 bitrate=N/A speed=8.02x    frame=30236 fps=192 q=-0.0 size=N/A time=00:21:01.09 bitrate=N/A speed=8.02x    frame=30331 fps=192 q=-0.0 size=N/A time=00:21:05.05 bitrate=N/A speed=8.02x    frame=30439 fps=192 q=-0.0 size=N/A time=00:21:09.55 bitrate=N/A speed=8.02x    frame=30539 fps=192 q=-0.0 size=N/A time=00:21:13.73 bitrate=N/A speed=8.02x    frame=30634 fps=192 q=-0.0 size=N/A time=00:21:17.69 bitrate=N/A speed=8.02x    frame=30734 fps=192 q=-0.0 size=N/A time=00:21:21.86 bitrate=N/A speed=8.02x    frame=30830 fps=192 q=-0.0 size=N/A time=00:21:25.86 bitrate=N/A speed=8.02x    frame=30924 fps=192 q=-0.0 size=N/A time=00:21:29.78 bitrate=N/A speed=8.02x    frame=31019 fps=192 q=-0.0 size=N/A time=00:21:33.75 bitrate=N/A speed=8.01x    frame=31122 fps=192 q=-0.0 size=N/A time=00:21:38.04 bitrate=N/A speed=8.02x    frame=31208 fps=192 q=-0.0 size=N/A time=00:21:41.63 bitrate=N/A speed=8.01x    frame=31310 fps=192 q=-0.0 size=N/A time=00:21:45.88 bitrate=N/A speed=8.01x    frame=31389 fps=192 q=-0.0 size=N/A time=00:21:49.18 bitrate=N/A speed=8.01x    frame=31488 fps=192 q=-0.0 size=N/A time=00:21:53.31 bitrate=N/A speed=8.01x    frame=31581 fps=192 q=-0.0 size=N/A time=00:21:57.19 bitrate=N/A speed=8.01x    frame=31683 fps=192 q=-0.0 size=N/A time=00:22:01.44 bitrate=N/A speed=8.01x    frame=31785 fps=192 q=-0.0 size=N/A time=00:22:05.69 bitrate=N/A speed=8.01x    frame=31880 fps=192 q=-0.0 size=N/A time=00:22:09.66 bitrate=N/A speed=8.01x    frame=31971 fps=192 q=-0.0 size=N/A time=00:22:13.45 bitrate=N/A speed=8.01x    frame=32075 fps=192 q=-0.0 size=N/A time=00:22:17.79 bitrate=N/A speed=8.01x    frame=32168 fps=192 q=-0.0 size=N/A time=00:22:21.67 bitrate=N/A speed=   8x    frame=32267 fps=192 q=-0.0 size=N/A time=00:22:25.80 bitrate=N/A speed=   8x    frame=32351 fps=192 q=-0.0 size=N/A time=00:22:29.30 bitrate=N/A speed=   8x    frame=32459 fps=192 q=-0.0 size=N/A time=00:22:33.81 bitrate=N/A speed=   8x    frame=32550 fps=192 q=-0.0 size=N/A time=00:22:37.60 bitrate=N/A speed=   8x    frame=32648 fps=192 q=-0.0 size=N/A time=00:22:41.69 bitrate=N/A speed=   8x    frame=32747 fps=192 q=-0.0 size=N/A time=00:22:45.82 bitrate=N/A speed=   8x    frame=32842 fps=192 q=-0.0 size=N/A time=00:22:49.78 bitrate=N/A speed=   8x    frame=32944 fps=192 q=-0.0 size=N/A time=00:22:54.03 bitrate=N/A speed=   8x    frame=33041 fps=192 q=-0.0 size=N/A time=00:22:58.08 bitrate=N/A speed=   8x    frame=33134 fps=192 q=-0.0 size=N/A time=00:23:01.96 bitrate=N/A speed=   8x    frame=33231 fps=192 q=-0.0 size=N/A time=00:23:06.00 bitrate=N/A speed=   8x    frame=33340 fps=192 q=-0.0 size=N/A time=00:23:10.55 bitrate=N/A speed=   8x    frame=33446 fps=192 q=-0.0 size=N/A time=00:23:14.97 bitrate=N/A speed=   8x    frame=33557 fps=192 q=-0.0 size=N/A time=00:23:19.60 bitrate=N/A speed=8.01x    frame=33656 fps=192 q=-0.0 size=N/A time=00:23:23.73 bitrate=N/A speed=8.01x    frame=33753 fps=192 q=-0.0 size=N/A time=00:23:27.78 bitrate=N/A speed=8.01x    frame=33856 fps=192 q=-0.0 size=N/A time=00:23:32.07 bitrate=N/A speed=8.01x    frame=33950 fps=192 q=-0.0 size=N/A time=00:23:35.99 bitrate=N/A speed=   8x    frame=34050 fps=192 q=-0.0 size=N/A time=00:23:40.16 bitrate=N/A speed=8.01x    [Parsed_ssim_10 @ 0000026735781980] SSIM Y:0.991548 (20.730628) U:0.992898 (21.486269) V:0.993089 (21.604460) All:0.992030 (20.985475)
[out#0/null @ 00000267310ef140] video:14635KiB audio:266360KiB subtitle:0KiB other streams:0KiB global headers:0KiB muxing overhead: unknown
frame=34059 fps=192 q=-0.0 Lsize=N/A time=00:23:40.54 bitrate=N/A speed=8.01x    
